# xmcd
#
# Track frame offsets: 
#        150
#        24150
#        59100
#        78375
#        99150
#        127425
#        159150
#        178650
#        199050
#        237750
#
# Disc length: 3677 seconds
#
# Revision: 1
# Processed by: cddbd v1.5.2PL0 Copyright (c) Steve Scherf et al.
# Submitted via: ExactAudioCopy v0.99pb4
#
DISCID=7d0e5b0a
DTITLE=Bruce Springsteen - Columbus, 7-31-05(Neo version-Disc 2)
DYEAR=2005
DGENRE=Rock and Roll
TTITLE0=The Rising
TTITLE1=Further On Up The Road
TTITLE2=Jesus Was An Only Son
TTITLE3=Two Hearts
TTITLE4=The Hitter
TTITLE5=Matomoros Banks
TTITLE6=Ramrod
TTITLE7=Bobby Jean
TTITLE8=The Promised Land
TTITLE9=Dream Baby Dream
EXTD=
EXTT0=
EXTT1=
EXTT2=
EXTT3=
EXTT4=
EXTT5=
EXTT6=
EXTT7=
EXTT8=
EXTT9=
PLAYORDER=
